<?xml version="1.0" encoding="UTF-8"?><svg id="a" xmlns="http://www.w3.org/2000/svg" xmlns:xlink="http://www.w3.org/1999/xlink" viewBox="0 0 928.4 999.37"><defs><style>.c{fill:#21e4ba;}.d{fill:#6963f8;}.e{fill:#3deea2;}.f{fill:#05a6f6;}.g{fill:url(#b);}</style><linearGradient id="b" x1="955.77" y1="679.03" x2="462.07" y2="730.92" gradientUnits="userSpaceOnUse"><stop offset="0" stop-color="#fbe834"/><stop offset=".61" stop-color="#f9ac4b"/><stop offset="1" stop-color="#21e4ba"/></linearGradient></defs><path class="g" d="M925.86,394.42c3.97,43.95-2.35,90.12,1.92,133.58-1.04,21.11,5.22,295.89-7.73,306.77-32.51,108.74-142.88,173.93-254.53,153-76.59-14.39-129.39-77.09-188.8-120.45-2.14-2.58,4.19-8.82,6.42-10.96,24.32-21.21,58.93-47.04,83.17-66.37,26.31,21.02,67.92,59.3,98.27,73.73,61.28,30.16,135.94-8.97,149.56-74.87,1.19-113.48,1.03-227.14-.56-340.65"/><path class="d" d="M2.68,758.38c-22.28,136.49,97.82,255.16,234.11,239.62,64.86-8.65,108.5-44.1,156.06-84.46,125.8-100.47,255.99-200.56,379.81-302.88l-91.9-71.29c-106.74,83.59-212.99,168.52-319.06,252.04-57.77,43.02-122.43,123.33-200.22,76.39-39.81-23.06-53.64-65.79-44.99-103.98l-106.23-44.9c-3.78,12.52-6.37,25.69-7.59,39.46Z"/><path class="e" d="M426.78,0h.01s-18,.01-18,.01c-9.05,3.15-17.5,6.14-24.44,13.05-4.16,4.14-12.56,18.08-12.56,23.45v53.93l111,97.56c113.17,80.3,216.97,178.44,330.79,260.2l112.28-53.78C758.17,265.08,597.65,123.15,426.78,0Z"/><path class="f" d="M10.26,718.92l106.23,44.9c7.12-31.43,29.46-59.77,65.09-71.53l-56.18-100.16c-53.37,23.92-97.42,68.2-115.13,126.79Z"/><path class="c" d="M371.79,90.44v545.07c0,.14-1.2,2.62-1.49,2.49-1.82-2.42-4.92-2.97-7.12-4.38-64.65-68.16-160.89-75.96-237.78-41.49l56.18,100.16c68.72-22.67,121.36,47.19,169.96,81.67,1.49,1.06,7.45,4.97,8.75,4.97,39.57-30.74,82.98-64.71,122.5-96.43V188l-111-97.56Z"/></svg>